<?xml version="1.0" standalone="no"?><!DOCTYPE svg PUBLIC "-//W3C//DTD SVG 1.1//EN" "http://www.w3.org/Graphics/SVG/1.1/DTD/svg11.dtd"><svg width="200" height="200" viewBox="0 0 200 200" version="1.1" xmlns="http://www.w3.org/2000/svg" xmlns:xlink="http://www.w3.org/1999/xlink"><defs><style type="text/css"><![CDATA[
@font-face { font-family: ifont; src: url("//at.alicdn.com/t/font_1442373896_4754455.eot?#iefix") format("embedded-opentype"), url("//at.alicdn.com/t/font_1442373896_4754455.woff") format("woff"), url("//at.alicdn.com/t/font_1442373896_4754455.ttf") format("truetype"), url("//at.alicdn.com/t/font_1442373896_4754455.svg#ifont") format("svg"); }

]]></style></defs><g class="transform-group"><g transform="scale(0.1953125, 0.1953125)"><path d="M907.675668 368.695177c-3.664459-5.78168-10.92891-8.18645-17.328667-5.725398-1.239224 0.477884-124.607996 47.569412-196.904579 47.569412-19.255553 0-32.81436-3.487428-38.181601-9.8176-1.096984-1.307785-4.452405-5.259794-2.644223-16.09149 3.114944-18.679431 0.815575-32.265868-7.02602-41.521672-4.254907-5.03569-12.236696-11.027148-26.076912-11.027148-40.037878 0-109.754706 54.504358-117.756961 60.862159-1.258667 1.039679-126.605489 103.479793-207.213365 116.686582-193.254445 31.633465-225.739301 87.207178-228.805126 93.437066-1.11745 2.2656-1.617847 4.782933-1.456165 7.30129 3.38305 51.90209 67.360154 77.134775 195.581444 77.134775 131.084501 0 280.06765-26.41358 309.844837-34.910091 23.151279-7.291057 49.485041-13.414521 77.181847-18.558681l0.284479 37.870516c0.056282 7.906064 6.491855 14.290471 14.403035 14.290471l0.007163 0 275.360442-0.197498c3.825119 0 7.483438-1.518586 10.184967-4.219091 2.700505-2.714831 4.211928-6.372128 4.211928-10.197246l-0.056282-70.614268c1.071402-1.587148 1.849114-3.402493 2.222621-5.382591C975.787952 477.81441 910.467247 373.096417 907.675668 368.695177zM93.764524 613.126188c9.853415-11.224646 53.948703-50.27094 205.434859-75.054393 7.390317-1.211595 15.058974-3.063779 22.901593-5.41943-12.745279 32.380478-23.734564 81.978083 3.247974 124.023688-21.985734 1.276063-44.045145 2.023076-65.484434 2.023076C161.054069 658.698107 101.226472 642.157385 93.764524 613.126188zM561.429783 624.997564c-21.63781 6.17463-117.725238 23.48897-219.212654 30.594809-33.584909-43.445488-15.563464-99.604532-1.842974-129.205711 42.806945-16.364713 88.60706-44.88835 123.252115-68.952418l29.170366 29.115108c1.407046 1.406023 3.241834 2.110057 5.084808 2.110057 1.843998 0 3.693112-0.704035 5.099135-2.110057 2.806929-2.813069 2.806929-7.384178-0.013303-10.18292l-27.405163-27.352975c8.181333-5.859451 15.506159-11.287067 21.741163-16.004509l31.171953 31.148417c1.406023 1.407046 3.247974 2.110057 5.091972 2.110057 1.841951 0 3.683902-0.703011 5.090948-2.110057 2.813069-2.813069 2.813069-7.369851 0-10.18292l-29.838585-29.817096c6.321986-4.939499 10.224876-8.132214 11.04659-8.80862 2.973728-2.362814 6.262634-4.885264 9.767458-7.493671l32.978089 32.952506c1.406023 1.407046 3.248997 2.110057 5.091972 2.110057 1.841951 0 3.685949-0.703011 5.091972-2.110057 2.813069-2.813069 2.813069-7.369851 0-10.18292l-31.323403-31.30089c26.774807-18.696828 60.633962-38.436404 78.043471-38.436404 2.342348 0 3.747347 0.421602 4.099365 0.829901 0.12689 0.154519 2.996241 3.742231 0.590448 18.187221-2.657526 15.922644 0.402159 29.186739 9.079796 39.440267 11.406794 13.459546 31.084972 20.00052 60.159148 20.00052 64.765049 0 162.155147-33.067116 195.623399-45.177945 13.847379 25.806759 47.436382 98.063433 38.805818 178.00309l-95.481631 11.018961C751.006466 588.619028 640.035048 600.249927 561.429783 624.997564zM675.874301 657.375995l-0.202615-27.104311 156.299789-18.037818c39.260166-2.684132 71.830979-3.940752 90.512457-4.501524l0.038886 49.473785L675.874301 657.375995z" fill="#d3217b"></path></g></g></svg>