<?xml version="1.0" standalone="no"?><!DOCTYPE svg PUBLIC "-//W3C//DTD SVG 1.1//EN" "http://www.w3.org/Graphics/SVG/1.1/DTD/svg11.dtd"><svg width="200" height="200" viewBox="0 0 200 200" version="1.1" xmlns="http://www.w3.org/2000/svg" xmlns:xlink="http://www.w3.org/1999/xlink"><defs><style type="text/css"><![CDATA[
@font-face { font-family: ifont; src: url("//at.alicdn.com/t/font_1442373896_4754455.eot?#iefix") format("embedded-opentype"), url("//at.alicdn.com/t/font_1442373896_4754455.woff") format("woff"), url("//at.alicdn.com/t/font_1442373896_4754455.ttf") format("truetype"), url("//at.alicdn.com/t/font_1442373896_4754455.svg#ifont") format("svg"); }

]]></style></defs><g class="transform-group"><g transform="scale(0.1953125, 0.1953125)"><path d="M229.701 800.734c-5.523 0-10.742-3.342-12.869-8.81l-215.053-552.406c-2.762-7.111 0.761-15.106 7.857-17.869 7.084-2.789 15.106 0.746 17.869 7.857l215.053 552.432c2.762 7.111-0.761 15.106-7.857 17.869-1.643 0.636-3.328 0.926-4.998 0.926zM235.569 800.734c-1.671 0-3.356-0.29-4.998-0.939-7.111-2.762-10.633-10.756-7.857-17.869l215.053-552.432c2.749-7.111 10.784-10.661 17.869-7.857 7.111 2.762 10.633 10.771 7.857 17.869l-215.053 552.419c-2.113 5.468-7.333 8.81-12.869 8.81zM567.495 803.303c-7.635 0-13.809-6.173-13.809-13.809v-557.555c0-7.623 6.173-13.809 13.809-13.809s13.809 6.188 13.809 13.809v557.555c0 7.623-6.188 13.809-13.809 13.809zM719.389 805.871c-7.635 0-13.809-6.173-13.809-13.809v-249.172c0-7.635 6.173-13.809 13.809-13.809s13.809 6.173 13.809 13.809v249.172c0 7.635-6.188 13.809-13.809 13.809zM855.292 556.698h-135.916c-7.635 0-13.809-6.173-13.809-13.809s6.173-13.809 13.809-13.809h135.916c77.341 0 140.252-62.926 140.252-140.266s-62.926-140.266-140.252-140.266h-135.916c-7.635 0-13.809-6.188-13.809-13.809s6.173-13.809 13.809-13.809h135.916c92.558 0 167.869 75.311 167.869 167.883 0.015 92.571-75.311 167.883-167.869 167.883z" fill="#d3217b"></path></g></g></svg>