<?xml version="1.0" standalone="no"?><!DOCTYPE svg PUBLIC "-//W3C//DTD SVG 1.1//EN" "http://www.w3.org/Graphics/SVG/1.1/DTD/svg11.dtd"><svg width="283.0078125" height="200" viewBox="0 0 283.0078125 200" version="1.1" xmlns="http://www.w3.org/2000/svg" xmlns:xlink="http://www.w3.org/1999/xlink"><defs><style type="text/css"><![CDATA[
@font-face { font-family: ifont; src: url("//at.alicdn.com/t/font_1442373896_4754455.eot?#iefix") format("embedded-opentype"), url("//at.alicdn.com/t/font_1442373896_4754455.woff") format("woff"), url("//at.alicdn.com/t/font_1442373896_4754455.ttf") format("truetype"), url("//at.alicdn.com/t/font_1442373896_4754455.svg#ifont") format("svg"); }

]]></style></defs><g class="transform-group"><g transform="scale(0.1953125, 0.1953125)"><path d="M945.389551 868.155216 558.185789 868.155216c-7.052579-1.892155-14.621199-2.580212-21.157736-5.676466-24.25399-11.352931-35.778935-31.134554-35.778935-57.968755-0.172014-93.231648 0-199.880396 0-293.112044 0-1.204099-0.172014-2.580212 0-3.78431 0.172014-2.580212-0.688056-3.78431-3.268268-4.128339-13.933143-1.720141-25.286074-8.600706-35.090879-18.577524-38.359147-38.875189-80.158576-77.578364-118.517722-116.453553-8.77272-8.77272-14.793214-19.093566-17.545439-31.478582-0.344028-1.892155-1.032085-3.956325-1.376113-5.84848l0-13.417101c0.172014-0.344028 0.688056-0.688056 0.688056-1.204099 1.892155-15.309256 9.63279-27.350244 20.297665-38.187133 51.604233-52.120275 88.587267-90.995464 140.019486-143.287754 2.580212-2.580212 4.644381-5.504452 6.70855-8.428691 11.180917-16.685369 26.662187-26.490173 46.615824-26.834201 29.242399-0.688056 58.484798-0.344028 87.727196-0.172014 2.064169 0 4.128339 1.032085 6.020494 1.892155 10.320847 4.816395 20.469679 10.320847 31.134554 14.277171 34.918864 13.073072 71.041828 17.201411 108.024861 14.449185 34.918864-2.580212 67.945574-11.69696 98.736099-28.898371 2.064169-1.204099 4.644381-1.720141 7.052579-1.720141 30.274483 0 60.376953 0.172014 90.651436 0 17.373425-0.172014 32.166639 5.676466 44.379641 18.061482 54.356459 54.872501 89.447337 96.67193 143.459768 151.716445 24.081975 24.598018 23.909961 61.065009-0.172014 85.663027-38.703175 39.563245-77.578364 78.782463-116.453553 118.173694-8.77272 8.77272-18.921552 14.965228-31.134554 17.201411-6.70855 1.376113-6.70855 1.376113-6.70855 8.256677 0 97.359987 0 207.793046 0 305.153032 0 24.25399-9.460776 43.175542-30.274483 55.904586C963.795061 864.886948 954.678313 866.779103 945.389551 868.155216L945.389551 868.155216zM539.436251 406.985386l0 6.880564c0 124.882244 0 281.071057 0 405.953301 0 1.720141 0 3.440282 0 5.160423 0.172014 3.956325 2.236183 6.020494 6.192508 6.192508 1.376113 0 2.752226 0 4.300353 0 136.579204 0 267.309928 0 403.889132 0 1.376113 0 2.752226 0 4.300353 0 3.78431-0.172014 5.676466-2.236183 6.020494-6.020494 0.172014-1.720141 0-3.440282 0-5.160423 0-129.870653 0-290.875861 0-420.5745l0-6.536536c2.236183 2.064169 3.440282 3.096254 4.644381 4.300353 12.55703 12.040988 28.898371 24.25399 41.455401 36.294977 5.84848 5.676466 7.396607 5.676466 13.073072-0.172014 37.327062-38.015118 74.826138-75.858223 112.1532-113.873341 6.364522-6.536536 6.364522-7.740635 0-14.105157-48.852007-49.540064-97.532001-98.908114-146.384008-148.448177-4.128339-4.300353-8.256677-8.600706-12.729044-12.729044-1.548127-1.376113-3.612296-2.752226-5.676466-2.92424-5.504452-0.516042-11.180917-0.172014-16.857383-0.172014-19.953637 0-40.079288-0.172014-60.032925 0.172014-3.440282 0-7.224593 0.860071-10.320847 2.408198-35.606921 17.545439-73.278011 26.662187-112.497228 28.726356-52.980346 2.752226-104.068537-5.504452-152.060474-29.758441-1.376113-0.688056-2.92424-1.376113-4.472367-1.376113-23.565933-0.172014-47.30388-0.172014-70.869814 0.172014-2.064169 0-5.332437 1.720141-6.020494 3.440282-1.892155 5.676466-6.192508 8.944734-10.148833 12.901058-52.808332 53.496388-105.616664 106.992777-158.424996 160.661179-6.020494 6.020494-5.84848 7.568621 0 13.589115 30.618512 31.134554 61.237023 62.097094 92.027549 93.231648 7.224593 7.396607 14.621199 14.793214 21.845792 22.18982 3.956325 3.956325 6.020494 3.956325 9.976818 0.344028 2.752226-2.408198 5.332437-4.816395 7.912649-7.396607C512.946078 429.175206 526.879221 418.510331 539.436251 406.985386L539.436251 406.985386z" fill="#d3217b"></path></g></g></svg>