<?xml version="1.0" standalone="no"?><!DOCTYPE svg PUBLIC "-//W3C//DTD SVG 1.1//EN" "http://www.w3.org/Graphics/SVG/1.1/DTD/svg11.dtd"><svg width="200" height="200" viewBox="0 0 200 200" version="1.1" xmlns="http://www.w3.org/2000/svg" xmlns:xlink="http://www.w3.org/1999/xlink"><defs><style type="text/css"><![CDATA[
@font-face { font-family: ifont; src: url("//at.alicdn.com/t/font_1442373896_4754455.eot?#iefix") format("embedded-opentype"), url("//at.alicdn.com/t/font_1442373896_4754455.woff") format("woff"), url("//at.alicdn.com/t/font_1442373896_4754455.ttf") format("truetype"), url("//at.alicdn.com/t/font_1442373896_4754455.svg#ifont") format("svg"); }

]]></style></defs><g class="transform-group"><g transform="scale(0.1953125, 0.1953125)"><path d="M958.58 240.027c0-23.382-19.022-42.405-42.404-42.405L329.517 197.622c-1.011-0.161-2.04-0.268-3.096-0.268-1.057 0-2.086 0.107-3.097 0.268L107.825 197.622c-23.383 0-42.405 19.023-42.405 42.405l0 151.725c0 1.416 0.157 2.793 0.441 4.124-0.113 0.854-0.192 1.717-0.192 2.602 0 10.844 8.791 19.635 19.636 19.635 52.471 0 95.159 42.688 95.159 95.159 0 52.473-42.688 95.16-95.159 95.16-10.845 0-19.636 8.791-19.636 19.635 0 0.893 0.08 1.764 0.195 2.625-0.286 1.334-0.444 2.715-0.444 4.135l0 149.416c0 23.381 19.022 42.404 42.405 42.404l808.351 0c23.382 0 42.404-19.023 42.404-42.404L958.58 626.857c0-10.846-8.791-19.637-19.635-19.637-0.385 0-0.76 0.037-1.138 0.059-51.948-0.613-94.022-43.055-94.022-95.146 0-54.25 40.91-95.16 95.16-95.16 10.844 0 19.635-8.791 19.635-19.635 0-0.174-0.021-0.343-0.025-0.516 0.004-0.174 0.025-0.342 0.025-0.517L958.58 240.027zM842.622 417.207c-24.573 25.031-38.106 58.744-38.106 94.927 0 67.457 49.944 123.458 114.795 132.992l0 139.117c0 1.729-1.406 3.135-3.135 3.135l-570.12 0 0-55.775c0-10.846-8.791-19.635-19.635-19.635-10.845 0-19.635 8.789-19.635 19.635l0 55.775L107.825 787.378c-1.729 0-3.136-1.406-3.136-3.135L104.689 646.299c64.972-9.426 115.044-65.484 115.044-133.027 0-67.541-50.072-123.6-115.044-133.025L104.689 240.027c0-1.729 1.406-3.135 3.136-3.135l198.961 0 0 52.963c0 10.844 8.79 19.635 19.635 19.635 10.844 0 19.635-8.791 19.635-19.635l0-52.963 570.12 0c1.729 0 3.135 1.406 3.135 3.135l0 139.022C889.873 383.108 863.147 396.299 842.622 417.207zM326.421 356.747c-10.845 0-19.635 8.791-19.635 19.635l0 89.943c0 10.844 8.79 19.635 19.635 19.635 10.844 0 19.635-8.791 19.635-19.635l0-89.943C346.056 365.538 337.265 356.747 326.421 356.747zM326.421 535.494c-10.845 0-19.635 8.791-19.635 19.635l0 89.945c0 10.844 8.79 19.635 19.635 19.635 10.844 0 19.635-8.791 19.635-19.635l0-89.945C346.056 544.285 337.265 535.494 326.421 535.494zM710.103 520.115c10.844 0 19.635-8.79 19.635-19.634s-8.791-19.635-19.635-19.635l-92.51 0 0-4.68 91.593-91.593c7.667-7.668 7.667-20.1 0-27.768-7.668-7.668-20.101-7.668-27.769 0l-81.751 81.751-81.752-81.751c-7.668-7.668-20.1-7.668-27.768 0s-7.668 20.1 0 27.768l88.177 88.177 0 8.096-90.605 0c-10.844 0-19.635 8.79-19.635 19.635s8.791 19.634 19.635 19.634l90.605 0 0 31.32-90.605 0c-10.844 0-19.635 8.789-19.635 19.635 0 10.844 8.791 19.635 19.635 19.635l90.605 0 0 49.814c0 10.844 8.791 19.635 19.635 19.635 10.845 0 19.635-8.791 19.635-19.635l0-49.814 92.51 0c10.844 0 19.635-8.791 19.635-19.635 0-10.846-8.791-19.635-19.635-19.635l-92.51 0 0-31.32L710.103 520.115z" fill="#d3217b"></path></g></g></svg>