<?xml version="1.0" standalone="no"?><!DOCTYPE svg PUBLIC "-//W3C//DTD SVG 1.1//EN" "http://www.w3.org/Graphics/SVG/1.1/DTD/svg11.dtd"><svg width="200" height="200" viewBox="0 0 200 200" version="1.1" xmlns="http://www.w3.org/2000/svg" xmlns:xlink="http://www.w3.org/1999/xlink"><defs><style type="text/css"><![CDATA[
@font-face { font-family: ifont; src: url("//at.alicdn.com/t/font_1442373896_4754455.eot?#iefix") format("embedded-opentype"), url("//at.alicdn.com/t/font_1442373896_4754455.woff") format("woff"), url("//at.alicdn.com/t/font_1442373896_4754455.ttf") format("truetype"), url("//at.alicdn.com/t/font_1442373896_4754455.svg#ifont") format("svg"); }

]]></style></defs><g class="transform-group"><g transform="scale(0.1953125, 0.1953125)"><path d="M839.111111 264.533333c-5.688889-5.688889-14.222222-5.688889-22.755556-2.844444-99.555556 19.911111-201.955556 28.444444-301.511111 28.444444-102.4 0-201.955556-8.533333-301.511111-28.444444C193.422222 256 179.2 264.533333 176.355556 281.6c0 0 0 2.844444 0 2.844444l-17.066667 182.044444c0 14.222222 8.533333 28.444444 22.755556 31.288889 122.311111 28.444444 256 213.333333 267.377778 253.155556 2.844444 14.222222 14.222222 22.755556 28.444444 22.755556l79.644444 0c14.222222 0 25.6-8.533333 28.444444-22.755556 8.533333-39.822222 142.222222-224.711111 267.377778-253.155556 14.222222-2.844444 22.755556-17.066667 22.755556-31.288889L850.488889 284.444444C847.644444 275.911111 844.8 270.222222 839.111111 264.533333zM531.911111 713.955556l-39.822222 0c-34.133333-71.111111-150.755556-221.866667-275.911111-267.377778L227.555556 321.422222c93.866667 17.066667 187.733333 22.755556 284.444444 22.755556 96.711111 0 190.577778-8.533333 284.444444-22.755556l11.377778 125.155556C682.666667 492.088889 566.044444 642.844444 531.911111 713.955556z" fill="#d3217b"></path></g></g></svg>