<?xml version="1.0" standalone="no"?><!DOCTYPE svg PUBLIC "-//W3C//DTD SVG 1.1//EN" "http://www.w3.org/Graphics/SVG/1.1/DTD/svg11.dtd"><svg width="200" height="200" viewBox="0 0 200 200" version="1.1" xmlns="http://www.w3.org/2000/svg" xmlns:xlink="http://www.w3.org/1999/xlink"><defs><style type="text/css"><![CDATA[
@font-face { font-family: ifont; src: url("//at.alicdn.com/t/font_1442373896_4754455.eot?#iefix") format("embedded-opentype"), url("//at.alicdn.com/t/font_1442373896_4754455.woff") format("woff"), url("//at.alicdn.com/t/font_1442373896_4754455.ttf") format("truetype"), url("//at.alicdn.com/t/font_1442373896_4754455.svg#ifont") format("svg"); }

]]></style></defs><g class="transform-group"><g transform="scale(0.1953125, 0.1953125)"><path d="M919.385 268.553 750.945 100.112c-37.212-37.207-97.541-37.207-134.748 0L101.997 614l0 303.5L405 917.5l32.526-32.514-30.936-30.936-15.632 15.806L149.641 869.856 149.641 632.731l500.242-498.927c18.603-18.609 48.765-18.609 67.374 0L885.693 302.24c18.609 18.603 18.609 48.771 0 67.374L444.149 816.073l31.152 31.151 444.083-443.923C956.592 366.094 956.592 305.765 919.385 268.553zM678.47 227.725 640.702 265.492 754.005 378.796 791.773 341.033Z" fill="#d3217b"></path></g></g></svg>