<?xml version="1.0" standalone="no"?><!DOCTYPE svg PUBLIC "-//W3C//DTD SVG 1.1//EN" "http://www.w3.org/Graphics/SVG/1.1/DTD/svg11.dtd"><svg width="200" height="200" viewBox="0 0 200 200" version="1.1" xmlns="http://www.w3.org/2000/svg" xmlns:xlink="http://www.w3.org/1999/xlink"><defs><style type="text/css"><![CDATA[
@font-face { font-family: ifont; src: url("//at.alicdn.com/t/font_1442373896_4754455.eot?#iefix") format("embedded-opentype"), url("//at.alicdn.com/t/font_1442373896_4754455.woff") format("woff"), url("//at.alicdn.com/t/font_1442373896_4754455.ttf") format("truetype"), url("//at.alicdn.com/t/font_1442373896_4754455.svg#ifont") format("svg"); }

]]></style></defs><g class="transform-group"><g transform="scale(0.1953125, 0.1953125)"><path d="M302.879192 430.383144l403.883607 0 0-44.87607L302.879192 385.507074 302.879192 430.383144zM302.879192 609.887424l269.25642 0 0-12.82305 0-32.05302L302.879192 565.011354 302.879192 609.887424zM863.847463 766.964926c1.697665-2.260483 3.372817-4.538363 5.028527-6.831592 0.12996-0.180102 0.25992-0.360204 0.38988-0.541329 3.305279-4.591575 6.526647-9.247618 9.661034-13.96813 0.079818-0.12075 0.160659-0.240477 0.240477-0.360204 1.549286-2.337231 3.076058-4.690836 4.582365-7.058766 0.105401-0.165776 0.209778-0.332575 0.315178-0.49835 3.012613-4.750187 5.938246-9.56075 8.774851-14.430664 0.122797-0.210801 0.245593-0.420579 0.367367-0.630357 1.401929-2.416026 2.784416-4.845355 4.142343-7.290033 0.065492-0.11768 0.12996-0.236384 0.195451-0.354064 2.743484-4.948709 5.395894-9.954723 7.956206-15.014972 0.1361-0.268106 0.271176-0.537236 0.406253-0.805342 1.25969-2.503007 2.50096-5.01727 3.714602-7.546883 0.004093-0.008186 0.007163-0.01535 0.011256-0.022513 1.219781-2.541893 2.413979-5.100158 3.586688-7.668657 0.083911-0.184195 0.169869-0.36839 0.25378-0.553609 1.140986-2.5071 2.257413-5.02648 3.353374-7.55814 0.128937-0.298805 0.25685-0.598634 0.385786-0.89744 2.194992-5.100158 4.297886-10.249435 6.306636-15.44476 0.122797-0.316202 0.245593-0.632403 0.367367-0.949628 0.978281-2.545986 1.934049-5.103228 2.866281-7.671727 0.106424-0.291642 0.209778-0.585331 0.315178-0.877997 0.934279-2.588965 1.849114-5.187139 2.736321-7.798617 0.01535-0.044002 0.030699-0.089028 0.046049-0.13303 0.886183-2.609431 1.743714-5.233188 2.582825-7.864108 0.128937-0.405229 0.258896-0.810459 0.38681-1.216711 0.819668-2.597151 1.620917-5.202489 2.394537-7.819083 0.069585-0.234337 0.1361-0.468674 0.204661-0.703011 0.741897-2.52552 1.462305-5.060249 2.161223-7.603165 0.077771-0.284479 0.158612-0.567935 0.236384-0.852414 0.711198-2.608407 1.39579-5.227048 2.060939-7.852852 0.115634-0.457418 0.230244-0.914836 0.343831-1.372254 0.665149-2.663666 1.312902-5.334495 1.929955-8.016581 0.019443-0.083911 0.036839-0.167822 0.056282-0.251733 0.601704-2.620687 1.174756-5.251607 1.730411-7.889691 0.091074-0.433882 0.184195-0.86674 0.274246-1.300622 0.545422-2.62785 1.067308-5.26491 1.565658-7.909134 0.086981-0.463558 0.171915-0.927115 0.257873-1.391696 0.49221-2.65241 0.966001-5.311982 1.411139-7.980765 0.013303-0.079818 0.027629-0.159636 0.040932-0.239454 0.449231-2.706645 0.867764-5.423523 1.2689-8.145517 0.077771-0.529049 0.156566-1.058099 0.232291-1.588171 0.382717-2.664689 0.744967-5.335519 1.080611-8.014534 0.052189-0.417509 0.100284-0.837064 0.151449-1.254573 0.310062-2.529613 0.599657-5.065366 0.86674-7.607258 0.036839-0.345877 0.076748-0.689708 0.11154-1.035586 0.277316-2.697435 0.525979-5.40408 0.7552-8.115841 0.048095-0.572028 0.095167-1.143033 0.141216-1.716084 0.220011-2.724041 0.421602-5.454222 0.592494-8.192589 0.01842-0.289596 0.031722-0.579191 0.049119-0.868787 0.156566-2.578732 0.287549-5.163603 0.400113-7.753591 0.021489-0.49221 0.046049-0.984421 0.065492-1.476631 0.109494-2.715855 0.192382-5.437849 0.252757-8.165983 0.01228-0.565888 0.021489-1.131777 0.032746-1.697665 0.052189-2.816139 0.086981-5.636371 0.086981-8.463766 0-247.845785-200.916962-448.759677-448.759677-448.759677s-448.755584 200.912869-448.755584 448.758654 200.916962 448.759677 448.759677 448.759677c0.105401 0 0.210801-0.002047 0.316202-0.002047l66.900689 0c0.032746 0 0.064468 0.002047 0.097214 0.002047L953.580161 946.456926c24.785499 0 44.87607-20.095687 44.87607-44.887326L863.847463 766.964926zM876.650047 901.57881l-192.325283 0-44.87607 0-35.259038 0-99.369172 0c-223.058239 0-403.883607-180.821275-403.883607-403.88156 0-223.062332 180.825368-403.883607 403.883607-403.883607s403.88463 180.821275 403.88463 403.883607c0 103.373369-38.84061 197.671035-102.71743 269.107017l125.155465 125.152395C931.143149 909.665998 894.353245 901.57881 876.650047 901.57881z" fill="#d3217b"></path></g></g></svg>