<?xml version="1.0" standalone="no"?><!DOCTYPE svg PUBLIC "-//W3C//DTD SVG 1.1//EN" "http://www.w3.org/Graphics/SVG/1.1/DTD/svg11.dtd"><svg width="200" height="200" viewBox="0 0 200 200" version="1.1" xmlns="http://www.w3.org/2000/svg" xmlns:xlink="http://www.w3.org/1999/xlink"><defs><style type="text/css"><![CDATA[
@font-face { font-family: ifont; src: url("//at.alicdn.com/t/font_1442373896_4754455.eot?#iefix") format("embedded-opentype"), url("//at.alicdn.com/t/font_1442373896_4754455.woff") format("woff"), url("//at.alicdn.com/t/font_1442373896_4754455.ttf") format("truetype"), url("//at.alicdn.com/t/font_1442373896_4754455.svg#ifont") format("svg"); }

]]></style></defs><g class="transform-group"><g transform="scale(0.1953125, 0.1953125)"><path d="M752.999489 740.210383C697.910468 811.214979 638.082723 796.715574 638.082723 796.715574 698.259064 743.750809 695.53566 608.37583 695.53566 608.37583 739.72017 613.670128 752.999489 683.705191 752.999489 683.705191 755.036596 727.127149 867.905362 759.045447 867.905362 759.045447 795.637106 745.71166 752.999489 740.210383 752.999489 740.210383ZM505.572766 540.388766C505.572766 540.388766 484.864 527.806638 488.851064 473.99217 488.851064 473.99217 522.719319 175.202043 672.724426 221.489021 672.724426 221.489021 772.150468 292.667915 655.99183 457.390298 655.99183 457.390298 550.236596 570.705702 505.572766 540.388766ZM542.316936 570.705702C567.001872 653.889362 504.014979 740.210383 504.014979 740.210383 430.31966 766.58383 451.573106 694.457191 451.573106 694.457191 497.304511 645.261617 484.864 589.540766 484.864 589.540766 504.810213 571.751489 542.316936 570.705702 542.316936 570.705702ZM274.19234 702.540255C274.19234 702.540255 261.915234 647.68 281.36034 622.090894 281.36034 622.090894 296.502468 664.935489 331.645277 627.210894 331.645277 627.210894 342.462638 577.329021 292.700596 588.691064 292.700596 588.691064 308.997447 532.915745 344.031319 505.572766 279.857021 424.785702 159.275574 438.871149 159.275574 438.871149 119.078128 414.491234 159.275574 401.211915 159.275574 401.211915 264.290043 400.405787 331.645277 476.541277 331.645277 476.541277 313.049872 374.359149 216.728511 344.706723 216.728511 344.706723 185.856 305.772936 230.291064 315.936681 230.291064 315.936681 327.897872 381.548936 346.406128 469.013787 349.93566 501.36783 365.84034 491.084255 385.198298 486.835745 408.249191 495.37634 408.249191 495.37634 529.821957 554.713872 389.098213 702.540255 389.098213 702.540255 298.801021 790.222979 274.19234 702.540255ZM655.839319 577.557787C679.238809 671.842043 638.082723 740.210383 638.082723 740.210383 591.948255 841.172426 523.165957 777.880511 523.165957 777.880511 595.978894 701.516255 599.769872 570.705702 599.769872 570.705702 631.753532 569.300426 655.839319 577.557787 655.839319 577.557787Z" fill="#d3217b"></path></g></g></svg>