<?xml version="1.0" standalone="no"?><!DOCTYPE svg PUBLIC "-//W3C//DTD SVG 1.1//EN" "http://www.w3.org/Graphics/SVG/1.1/DTD/svg11.dtd"><svg width="200" height="200" viewBox="0 0 200 200" version="1.1" xmlns="http://www.w3.org/2000/svg" xmlns:xlink="http://www.w3.org/1999/xlink"><defs><style type="text/css"><![CDATA[
@font-face { font-family: ifont; src: url("//at.alicdn.com/t/font_1442373896_4754455.eot?#iefix") format("embedded-opentype"), url("//at.alicdn.com/t/font_1442373896_4754455.woff") format("woff"), url("//at.alicdn.com/t/font_1442373896_4754455.ttf") format("truetype"), url("//at.alicdn.com/t/font_1442373896_4754455.svg#ifont") format("svg"); }

]]></style></defs><g class="transform-group"><g transform="scale(0.1953125, 0.1953125)"><path d="M766.437157 1017.757838 639.220881 1017.757838l-63.60865 0L448.388792 1017.757838 193.951123 1017.757838l0-63.609673L193.951123 826.931889l0-63.609673L193.951123 63.612743l0-63.612743 63.60865 0 508.877384 0 63.609673 0L830.04683 63.612743l0 699.70845 0 63.609673 0 190.825949L766.437157 1017.756815zM448.388792 954.148165l127.223439 0L575.612231 826.931889 448.388792 826.931889 448.388792 954.148165zM766.437157 63.612743 257.559773 63.612743l0 699.70845 190.827996 0 127.223439 0 190.824926 0L766.436134 63.612743z" fill="#272636"></path></g></g></svg>