<?xml version="1.0" standalone="no"?><!DOCTYPE svg PUBLIC "-//W3C//DTD SVG 1.1//EN" "http://www.w3.org/Graphics/SVG/1.1/DTD/svg11.dtd"><svg width="200" height="200" viewBox="0 0 200 200" version="1.1" xmlns="http://www.w3.org/2000/svg" xmlns:xlink="http://www.w3.org/1999/xlink"><defs><style type="text/css"><![CDATA[
@font-face { font-family: ifont; src: url("//at.alicdn.com/t/font_1442373896_4754455.eot?#iefix") format("embedded-opentype"), url("//at.alicdn.com/t/font_1442373896_4754455.woff") format("woff"), url("//at.alicdn.com/t/font_1442373896_4754455.ttf") format("truetype"), url("//at.alicdn.com/t/font_1442373896_4754455.svg#ifont") format("svg"); }

]]></style></defs><g class="transform-group"><g transform="scale(0.1953125, 0.1953125)"><path d="M0 0 1024 0 0 0ZM0 963.776 1024 963.776 0 963.776ZM0 903.488 1024 903.488 0 903.488ZM0 843.264 1024 843.264 0 843.264ZM0 782.976 1024 782.976 0 782.976ZM0 722.752 1024 722.752 0 722.752ZM0 662.528 1024 662.528 0 662.528ZM0 602.24 1024 602.24 0 602.24ZM0 542.016 1024 542.016 0 542.016ZM0 481.984 1024 481.984 0 481.984ZM0 421.76 1024 421.76 0 421.76ZM0 361.472 1024 361.472 0 361.472ZM0 301.248 1024 301.248 0 301.248ZM0 241.024 1024 241.024 0 241.024ZM0 180.736 1024 180.736 0 180.736ZM0 120.512 1024 120.512 0 120.512ZM0 60.224 1024 60.224 0 60.224ZM0 1024 1024 1024 0 1024ZM0 0 0 1024 0 0ZM963.776 0 963.776 1024 963.776 0ZM903.488 0 903.488 1024 903.488 0ZM843.264 0 843.264 1024 843.264 0ZM782.976 0 782.976 1024 782.976 0ZM722.752 0 722.752 1024 722.752 0ZM662.528 0 662.528 1024 662.528 0ZM602.24 0 602.24 1024 602.24 0ZM542.016 0 542.016 1024 542.016 0ZM481.984 0 481.984 1024 481.984 0ZM421.76 0 421.76 1024 421.76 0ZM361.472 0 361.472 1024 361.472 0ZM301.248 0 301.248 1024 301.248 0ZM241.024 0 241.024 1024 241.024 0ZM180.736 0 180.736 1024 180.736 0ZM120.512 0 120.512 1024 120.512 0ZM60.224 0 60.224 1024 60.224 0ZM1024 0 1024 1024 1024 0ZM483.392 813.76c-50.944 0-98.304-13.76-140.352-36.16l0 58.688C343.04 904.64 405.824 960 483.328 960c77.568 0 140.352-55.36 140.352-123.776l0-58.56C581.632 800 534.336 813.76 483.392 813.76zM483.392 210.24c50.944 0 98.24 13.824 140.288 36.096L623.68 187.776C623.68 119.424 560.96 64 483.328 64 405.824 64 343.04 119.424 343.04 187.776L343.04 246.4C385.152 224.064 432.448 210.24 483.392 210.24zM746.88 473.088l52.8 0 0 77.888-52.8 0 0-77.888ZM489.024 796.032c-156.544 0-283.904-127.36-283.904-284.032s127.36-284.032 283.904-284.032c156.672 0 284.096 127.424 284.096 284.032S645.696 796.032 489.024 796.032zM489.024 266.368C353.6 266.368 243.52 376.576 243.52 512s110.144 245.632 245.504 245.632c135.488 0 245.76-110.208 245.76-245.632S624.512 266.368 489.024 266.368zM619.84 406.72c-5.12-5.12-13.376-5.12-18.624 0.064L512.256 496.64C505.728 491.968 498.24 488.64 489.6 488.64c-3.456 0-6.528 1.152-9.664 1.92L417.216 428.416C408.32 419.584 393.792 419.648 384.96 428.608c-8.896 8.96-8.832 23.424 0.128 32.256L450.56 525.824c0 0.832-0.448 1.472-0.448 2.368 0 21.824 17.664 39.552 39.552 39.552 21.824 0 39.488-17.664 39.488-39.552 0-3.328-1.152-6.272-1.856-9.344l92.608-93.504C625.024 420.032 625.024 411.776 619.84 406.72z" fill="#d3217b"></path></g></g></svg>