<?xml version="1.0" standalone="no"?><!DOCTYPE svg PUBLIC "-//W3C//DTD SVG 1.1//EN" "http://www.w3.org/Graphics/SVG/1.1/DTD/svg11.dtd"><svg width="243.9453125" height="200" viewBox="0 0 243.9453125 200" version="1.1" xmlns="http://www.w3.org/2000/svg" xmlns:xlink="http://www.w3.org/1999/xlink"><defs><style type="text/css"><![CDATA[
@font-face { font-family: ifont; src: url("//at.alicdn.com/t/font_1442373896_4754455.eot?#iefix") format("embedded-opentype"), url("//at.alicdn.com/t/font_1442373896_4754455.woff") format("woff"), url("//at.alicdn.com/t/font_1442373896_4754455.ttf") format("truetype"), url("//at.alicdn.com/t/font_1442373896_4754455.svg#ifont") format("svg"); }

]]></style></defs><g class="transform-group"><g transform="scale(0.1953125, 0.1953125)"><path d="M511.9 871.986c-30.684 0-60.603-2.767-89.69-7.581l-210.244 127.595v-212.426c-109.621-76.98-179.965-195.014-179.965-327.581 0-231.952 214.855-419.993 479.899-419.993s479.899 188.041 479.899 419.993c0.022 231.975-214.833 419.993-479.899 419.993zM511.9 112.017c-231.907 0-399.927 141.183-399.927 339.998 0 121.994 50.952 209.614 159.224 274.717l18.109 139.158 121.207-84.876c32.528 6.929 66.362 11.001 101.388 11.001 231.93 0 399.927-141.16 399.927-339.998 0-198.817-167.997-339.998-399.927-339.998zM341.946 272.006c16.445 0 29.762 12.17 29.762 27.152v325.894c0 15.005-13.317 27.152-29.762 27.152-16.422 0-29.762-12.17-29.762-27.152v-325.894c0-15.005 13.317-27.152 29.762-27.152zM541.797 272.006c16.625 0 30.099 12.17 30.099 27.152v325.894c0 15.005-13.475 27.152-30.099 27.152s-30.099-12.17-30.099-27.152v-325.894c-0.023-15.005 13.452-27.152 30.099-27.152zM681.989 391.997c16.647 0 30.122 12.215 30.122 27.287v205.632c0 15.072-13.475 27.287-30.122 27.287-16.625 0-30.099-12.215-30.099-27.287v-205.632c0-15.072 13.475-27.287 30.099-27.287zM681.989 272.006c16.647 0 30.122 13.475 30.122 30.099 0 16.647-13.475 30.122-30.122 30.122-16.625 0-30.099-13.475-30.099-30.122 0-16.625 13.475-30.099 30.099-30.099zM338.122 431.995h207.792c14.352 0 25.96 13.475 25.96 30.122 0 16.625-11.631 30.122-25.96 30.122h-207.792c-14.352 0-25.983-13.497-25.983-30.122 0.023-16.647 11.653-30.122 25.983-30.122zM1096.201 384.933c17.006-41.189 18.401-86.968-0.023-130.452-18.109-42.674-72.278-93.919-112.726-110.566l-6.502 48.501c32.956 12.71 61.008 37.613 75.63 72.076 14.915 35.161 12.957 73.448-1.62 106.449l45.239 13.992zM1199.051 305.547c11.743-23.913-6.457-92.12-17.434-118.034-11.136-26.253-53.090-44.722-78.893-52.707l-2.092 50.031c16.22 4.814 50.076 36.33 57.049 52.775 7.671 18.131 10.371 36.33 0.36 52.167l41.009 15.77z" fill="#e4a0bf"></path></g></g></svg>