<?xml version="1.0" standalone="no"?><!DOCTYPE svg PUBLIC "-//W3C//DTD SVG 1.1//EN" "http://www.w3.org/Graphics/SVG/1.1/DTD/svg11.dtd"><svg width="200" height="200" viewBox="0 0 200 200" version="1.1" xmlns="http://www.w3.org/2000/svg" xmlns:xlink="http://www.w3.org/1999/xlink"><defs><style type="text/css"><![CDATA[
@font-face { font-family: ifont; src: url("//at.alicdn.com/t/font_1442373896_4754455.eot?#iefix") format("embedded-opentype"), url("//at.alicdn.com/t/font_1442373896_4754455.woff") format("woff"), url("//at.alicdn.com/t/font_1442373896_4754455.ttf") format("truetype"), url("//at.alicdn.com/t/font_1442373896_4754455.svg#ifont") format("svg"); }

]]></style></defs><g class="transform-group"><g transform="scale(0.1953125, 0.1953125)"><path d="M558.545455 651.636364l-93.090909 0c-25.693091 0-46.545455-20.805818-46.545455-46.545455L232.727273 605.090909l0 186.181818 558.545455 0 0-186.181818-186.181818 0C605.090909 630.830545 584.285091 651.636364 558.545455 651.636364zM512 0C229.236364 0 0 229.236364 0 512s229.236364 512 512 512 512-229.236364 512-512S794.763636 0 512 0zM512 977.454545C254.929455 977.454545 46.545455 769.070545 46.545455 512 46.545455 254.929455 254.929455 46.545455 512 46.545455c257.070545 0 465.454545 208.384 465.454545 465.454545C977.454545 769.070545 769.070545 977.454545 512 977.454545zM605.090909 279.272727c0-53.806545-46.545455-46.545455-46.545455-46.545455l-93.090909 0C410.205091 232.727273 418.909091 279.272727 418.909091 279.272727l0 93.090909L232.727273 372.363636l0 186.181818 186.181818 0 0-46.545455c0-25.693091 20.852364-46.545455 46.545455-46.545455l93.090909 0c25.739636 0 46.545455 20.852364 46.545455 46.545455l0 46.545455 186.181818 0L791.272727 372.363636l-186.181818 0L605.090909 279.272727zM558.545455 372.363636l-93.090909 0L465.454545 279.272727l93.090909 0L558.545455 372.363636zM558.545455 512l-93.090909 0 0 93.090909 93.090909 0L558.545455 512z" fill="#d3217b"></path></g></g></svg>