<?xml version="1.0" standalone="no"?><!DOCTYPE svg PUBLIC "-//W3C//DTD SVG 1.1//EN" "http://www.w3.org/Graphics/SVG/1.1/DTD/svg11.dtd"><svg width="200" height="200" viewBox="0 0 200 200" version="1.1" xmlns="http://www.w3.org/2000/svg" xmlns:xlink="http://www.w3.org/1999/xlink"><defs><style type="text/css"><![CDATA[
@font-face { font-family: ifont; src: url("//at.alicdn.com/t/font_1442373896_4754455.eot?#iefix") format("embedded-opentype"), url("//at.alicdn.com/t/font_1442373896_4754455.woff") format("woff"), url("//at.alicdn.com/t/font_1442373896_4754455.ttf") format("truetype"), url("//at.alicdn.com/t/font_1442373896_4754455.svg#ifont") format("svg"); }

]]></style></defs><g class="transform-group"><g transform="scale(0.1953125, 0.1953125)"><path d="M971.746916 356.268146c-0.705058-1.623987-1.486864-3.225461-2.38635-4.711302l-127.575584-213.625402-99.853196 218.376613 229.815129 0L971.746916 356.268146 971.746916 356.268146zM340.491835 356.268146l340.828502 0L510.866177 115.603925 340.491835 356.268146 340.491835 356.268146zM475.867058 104.928794 235.280608 104.928794c-9.383718 0-19.511379 3.37998-28.133757 8.876158L310.165132 338.945619 475.867058 104.928794 475.867058 104.928794 475.867058 104.928794zM815.835983 111.007233c-7.389294-3.849678-15.561417-6.118348-23.26589-6.118348L545.864272 104.888885 711.608154 338.90571 815.835983 111.007233 815.835983 111.007233 815.835983 111.007233zM330.792938 390.972553l179.566702 554.668799c0.466628 0.061398 0.858554 0.100284 1.288343 0.13917l179.331341-554.806945L330.792938 390.973576 330.792938 390.972553 330.792938 390.972553zM182.569082 143.69982 58.453297 351.556844c-0.956791 1.603521-1.87572 3.185552-2.795673 4.711302l224.142943 0L182.569082 143.69982 182.569082 143.69982 182.569082 143.69982zM51.512211 390.972553l0.9967 1.721201 1.838881 0c2.091638 2.560312 4.906753 6.061043 8.349155 10.323113l394.185734 490.207671L294.230208 390.972553 51.512211 390.972553 51.512211 390.972553 51.512211 390.972553zM972.487789 390.972553 727.541031 390.972553 560.802496 906.695341l405.037896-503.678474C968.695417 399.458831 970.884268 395.352303 972.487789 390.972553L972.487789 390.972553 972.487789 390.972553zM972.487789 390.972553" fill="#d3217b"></path></g></g></svg>