<?xml version="1.0" standalone="no"?><!DOCTYPE svg PUBLIC "-//W3C//DTD SVG 1.1//EN" "http://www.w3.org/Graphics/SVG/1.1/DTD/svg11.dtd"><svg width="200" height="200" viewBox="0 0 200 200" version="1.1" xmlns="http://www.w3.org/2000/svg" xmlns:xlink="http://www.w3.org/1999/xlink"><defs><style type="text/css"><![CDATA[
@font-face { font-family: ifont; src: url("//at.alicdn.com/t/font_1442373896_4754455.eot?#iefix") format("embedded-opentype"), url("//at.alicdn.com/t/font_1442373896_4754455.woff") format("woff"), url("//at.alicdn.com/t/font_1442373896_4754455.ttf") format("truetype"), url("//at.alicdn.com/t/font_1442373896_4754455.svg#ifont") format("svg"); }

]]></style></defs><g class="transform-group"><g transform="scale(0.1953125, 0.1953125)"><path d="M690.270208 978.71872c-112.896 0-117.669888-4.804608-122.277888-9.428992-4.366336-4.425728-9.24672-9.398272-60.5184-487.979008-46.19264 476.13952-47.435776 480.096256-47.980544 481.85344-3.866624 12.097536-4.653056 14.614528-128.524288 14.614528-108.302336 0-109.756416-2.834432-114.608128-12.234752-5.896192-11.399168-1.181696-421.668864-1.13664-425.807872 3.426304-281.260032 10.217472-438.648832 20.207616-467.847168 0.802816-2.349056 3.274752-9.549824 10.369024-12.84096 16.979968-7.852032 70.219776-10.930176 189.937664-10.930176l75.19232 0.137216 76.754944-0.137216c147.29216 0 181.342208 4.32128 192.651264 12.294144 9.24672 6.518784 16.539648 11.657216 24.07424 456.73472 3.047424 179.871744 5.640192 437.116928 4.487168 443.983872C806.529024 975.003648 805.894144 978.71872 690.270208 978.71872M591.396864 945.68448c15.341568 1.456128 51.695616 2.7136 98.871296 2.7136 42.56768 0 73.949184-1.046528 88.928256-2.27328 0.985088-99.9936-7.868416-788.809728-19.935232-861.984768-16.781312-3.639296-74.616832-5.699584-171.579392-5.699584l-76.754944 0.137216L435.736576 78.4384c-96.006144 0-153.962496 2.244608-172.640256 6.670336-16.494592 68.780032-22.542336 756.30592-18.888704 860.499968 13.492224 0.940032 41.43104 1.849344 86.759424 1.849344 46.57152 0 83.591168-0.970752 100.358144-2.093056 7.094272-66.64192 41.644032-422.002688 60.350464-615.532544 0.75776-7.747584 7.245824-13.658112 15.024128-13.688832l0.06144 0c7.76192 0 14.266368 5.8368 15.08352 13.553664C545.538048 554.000384 582.012928 887.97184 591.396864 945.68448M254.343168 229.828608c-8.247296 0-16.34304-1.57696-24.150016-5.07904-3.805184-1.712128-5.517312-6.21568-3.790848-10.020864 1.712128-3.81952 6.201344-5.533696 10.020864-3.805184 58.2144 26.271744 147.156992-90.730496 148.066304-91.928576 2.500608-3.336192 7.262208-4.032512 10.596352-1.501184 3.350528 2.516992 4.018176 7.262208 1.51552 10.612736C393.101312 132.759552 319.30368 229.828608 254.343168 229.828608M762.640384 229.828608c-64.960512 0-138.74176-97.069056-142.24384-101.722112-2.500608-3.350528-1.835008-8.095744 1.51552-10.612736 3.336192-2.516992 8.095744-1.835008 10.612736 1.501184 0.894976 1.19808 89.745408 118.20032 148.035584 91.928576 3.835904-1.759232 8.292352-0.014336 10.020864 3.805184 1.712128 3.805184 0.014336 8.306688-3.790848 10.020864C778.99776 228.251648 770.88768 229.828608 762.640384 229.828608M497.616896 331.3152 494.145536 62.273536 509.304832 62.076928 512.776192 331.102208ZM542.076928 94.464c0 6.746112-5.48864 12.218368-12.249088 12.218368-6.701056 0-12.142592-5.472256-12.142592-12.218368 0-6.731776 5.441536-12.204032 12.142592-12.204032C536.588288 82.259968 542.076928 87.732224 542.076928 94.464M243.591168 111.39072l529.788928 0 0 15.159296-529.788928 0 0-15.159296ZM339.433472 126.54592c-4.184064 0-7.579648-3.395584-7.579648-7.579648L331.853824 71.651328c0-4.184064 3.395584-7.579648 7.579648-7.579648 4.184064 0 7.579648 3.395584 7.579648 7.579648l0 47.312896C347.01312 123.148288 343.617536 126.54592 339.433472 126.54592M667.262976 126.54592c-4.184064 0-7.579648-3.395584-7.579648-7.579648L659.683328 71.651328c0-4.184064 3.395584-7.579648 7.579648-7.579648s7.579648 3.395584 7.579648 7.579648l0 47.312896C674.842624 123.148288 671.44704 126.54592 667.262976 126.54592" fill="#d3217b"></path></g></g></svg>