<?xml version="1.0" standalone="no"?><!DOCTYPE svg PUBLIC "-//W3C//DTD SVG 1.1//EN" "http://www.w3.org/Graphics/SVG/1.1/DTD/svg11.dtd"><svg width="200" height="200" viewBox="0 0 200 200" version="1.1" xmlns="http://www.w3.org/2000/svg" xmlns:xlink="http://www.w3.org/1999/xlink"><defs><style type="text/css"><![CDATA[
@font-face { font-family: ifont; src: url("//at.alicdn.com/t/font_1442373896_4754455.eot?#iefix") format("embedded-opentype"), url("//at.alicdn.com/t/font_1442373896_4754455.woff") format("woff"), url("//at.alicdn.com/t/font_1442373896_4754455.ttf") format("truetype"), url("//at.alicdn.com/t/font_1442373896_4754455.svg#ifont") format("svg"); }

]]></style></defs><g class="transform-group"><g transform="scale(0.1953125, 0.1953125)"><path d="M962.667435 21.546667c0-11.776-9.749333-21.546667-21.546667-21.546667l-858.282667 0c-11.413333 0-21.034667 9.216-21.525333 20.608l-42.666667 981.824c0 11.797333 9.770667 21.568 21.546667 21.568l943.616 0c5.824 0 11.498667-2.474667 15.509333-6.677333 4.032-4.202667 6.272-9.984 6.016-15.786667L962.667435 21.546667zM62.230101 981.333333l40.810667-938.666667 817.877333 0 40.832 938.666667L62.230101 981.333333zM737.323435 195.178667c-38.890667 0-70.421333 31.530667-70.421333 70.421333 0 34.773333 25.258667 63.488 58.389333 69.205333l0 93.738667c0 83.136-95.68 150.762667-213.333333 150.762667-115.648 0-213.333333-67.776-213.333333-148.010667l0-96.490667C331.798101 329.088 357.035435 300.373333 357.035435 265.6c0-38.890667-31.509333-70.421333-70.421333-70.421333-38.869333 0-70.421333 31.530667-70.421333 70.421333 0 27.84 16.32 51.690667 39.765333 63.125333l0 102.592c0 105.130667 114.858667 190.677333 256 190.677333s256-86.762667 256-193.429333l0-99.818667c23.466667-11.413333 39.765333-35.285333 39.765333-63.125333C807.744768 226.709333 776.214101 195.178667 737.323435 195.178667z" fill="#d3217b"></path></g></g></svg>