<?xml version="1.0" standalone="no"?><!DOCTYPE svg PUBLIC "-//W3C//DTD SVG 1.1//EN" "http://www.w3.org/Graphics/SVG/1.1/DTD/svg11.dtd"><svg width="200" height="200" viewBox="0 0 200 200" version="1.1" xmlns="http://www.w3.org/2000/svg" xmlns:xlink="http://www.w3.org/1999/xlink"><defs><style type="text/css"><![CDATA[
@font-face { font-family: ifont; src: url("//at.alicdn.com/t/font_1442373896_4754455.eot?#iefix") format("embedded-opentype"), url("//at.alicdn.com/t/font_1442373896_4754455.woff") format("woff"), url("//at.alicdn.com/t/font_1442373896_4754455.ttf") format("truetype"), url("//at.alicdn.com/t/font_1442373896_4754455.svg#ifont") format("svg"); }

]]></style></defs><g class="transform-group"><g transform="scale(0.1953125, 0.1953125)"><path d="M288.928 96.72l93.536 0 0 159.92-93.536 0 0-159.92ZM408.016 345.04c-22.096-18.192-25.104-59.936-25.104-59.936l-93.536 0c0 0-2.976 41.728-25.12 59.936-22.064 18.272-57.36 47.824-57.36 90.848l0 470.688c0 17.024 13.808 30.832 30.88 30.832l196.704 0c17.024 0 30.832-13.824 30.832-30.832L465.312 435.904C465.328 392.864 430.112 363.328 408.016 345.04M424.576 791.6 247.696 791.6 247.696 514.72l176.88 0L424.576 791.6zM772.032 899.424l-0.576 0L713.6 899.424c-10.624 0-19.248-8.608-19.248-19.264L694.352 639.52c78.4-8.672 139.52-75.136 139.52-155.952 0-6.784-0.624-13.328-1.36-19.872l-12.56-178.656L537.568 285.04l-15.392 172.704c-1.376 8.448-2.288 17.008-2.288 25.808 0 79.584 59.216 145.152 135.904 155.424L655.792 880.16c0 10.656-8.656 19.264-19.296 19.264l-57.808 0-0.56 0c-10.32 0-18.704 8.448-18.752 18.736l0 1.136c0.048 10.288 8.432 18.656 18.752 18.656l193.92 0c10.352 0 18.768-8.368 18.768-18.656l0-0.08 0-1.056 0 0C790.768 907.872 782.336 899.424 772.032 899.424M563.328 477.168l15.456-154.672 196.224 0 15.424 154.672L563.328 477.168z" fill="#d3217b"></path></g></g></svg>