<?xml version="1.0" standalone="no"?><!DOCTYPE svg PUBLIC "-//W3C//DTD SVG 1.1//EN" "http://www.w3.org/Graphics/SVG/1.1/DTD/svg11.dtd"><svg width="32" height="32" viewBox="0 0 32 32" version="1.1" xmlns="http://www.w3.org/2000/svg" xmlns:xlink="http://www.w3.org/1999/xlink"><defs><style type="text/css"><![CDATA[
@font-face { font-family: ifont; src: url(http://at.alicdn.com/t/font_1442373896_4754455.eot?#iefix) format(embedded-opentype), url(http://at.alicdn.com/t/font_1442373896_4754455.woff) format(woff), url(http://at.alicdn.com/t/font_1442373896_4754455.ttf) format(truetype), url(http://at.alicdn.com/t/font_1442373896_4754455.svg#ifont) format(svg); }

]]></style></defs><g class="transform-group"><g transform="scale(0.03125, 0.03125)"><path d="M338.048 349.248M527.872 492.416c3.072 1.728 4.608 0.448 12.352-9.856 7.104-9.6 8.512-13.568 5.888-16.192-0.896-0.896-6.144-1.344-16.192-1.344-13.44 0-15.232 0.192-16.96 2.176-1.088 1.216-1.664 2.816-1.216 3.84C512.96 474.368 525.888 491.456 527.872 492.416zM587.712 539.392c-9.856 5.888-26.624 6.976-35.584 2.496-8.512-4.352-12.608-11.136-14.912-25.088l-1.408-8.512-6.144-0.32c-6.656-0.32-7.424 0.32-7.424 6.656 0 10.496-7.232 23.296-15.68 27.584-8 4.16-23.552 3.2-33.792-2.176-2.816-1.536-5.44-2.752-5.824-2.752-1.408 0-0.32 7.424 1.408 8.96 6.144 5.248 19.904 8.128 31.424 6.464 11.52-1.664 16.832-5.056 25.92-16.32 3.072-3.84 5.696-2.944 10.304 3.264 3.264 4.48 6.144 6.656 11.84 9.536 7.104 3.52 8.192 3.712 18.624 3.712 9.28-0.128 12.032-0.576 17.152-2.816 6.208-2.752 9.728-6.208 9.728-9.728C593.408 537.408 591.68 537.088 587.712 539.392zM384.512 423.552c-7.36-2.432-11.072-2.816-11.072-1.408 0 0.448 1.216 2.496 2.496 4.608 2.944 4.288 6.336 14.464 8.64 25.152 1.984 9.6 1.984 47.296-0.128 56.896-2.176 10.496-5.248 19.456-8.448 24.96l-2.944 4.928 5.888-0.768c9.536-1.344 21.248-7.68 30.016-16.512 12.032-12.16 16.96-24 16.96-41.024 0-16.768-5.376-30.208-16.448-41.472C402.432 431.68 394.56 426.88 384.512 423.552zM340.608 427.52c-14.016 6.912-24.64 19.136-29.632 34.048-3.2 9.216-3.52 26.048-0.64 35.008 5.056 16.192 16.064 29.312 30.848 36.352 8.32 4.032 19.904 6.912 19.072 4.8-0.192-0.576-1.856-3.84-3.52-7.232-3.264-6.592-4.032-9.216-6.784-22.784-1.984-9.6-2.304-45.44-0.576-53.44 0.64-2.816 1.728-7.68 2.432-10.624 1.344-6.336 6.592-18.496 8.448-19.584 0.64-0.448 0.96-1.28 0.64-1.856C359.552 420.16 350.656 422.464 340.608 427.52zM673.792 495.168c-1.344-12.288-1.408-17.6-0.448-26.816 2.112-20.928 5.376-33.792 10.368-41.728 1.408-2.176 2.304-4.352 1.984-4.736-1.088-1.088-3.84-0.64-11.52 1.984-14.784 5.12-25.408 13.76-33.024 26.816-10.048 17.28-10.496 37.632-1.216 56.576 7.36 14.912 25.6 28.544 40.96 30.656l5.824 0.768-2.624-4.288C678.592 525.568 675.968 515.712 673.792 495.168zM529.984 89.344c-244.224 0-442.176 197.952-442.176 442.176s197.952 442.176 442.176 442.176 442.176-197.952 442.176-442.176S774.208 89.344 529.984 89.344zM795.392 535.68c-3.264 12.288-9.664 20.224-19.584 24.768-10.816 4.672-20.8 5.376-91.52 5.376-65.856 0.128-70.4 0.32-80.448 3.84-11.072 3.84-19.712 11.904-22.976 21.568-1.536 4.48-2.048 9.984-2.432 24.384-0.192 10.176 0 19.136 0.448 19.84 0.448 0.64 11.904 6.912 25.472 13.888 60.544 31.168 56.384 28.8 56.704 31.936 0.64 5.12-1.536 6.336-9.6 5.568-3.968-0.448-9.088-1.216-11.52-1.728-2.432-0.576-7.552-1.536-11.52-2.176-3.968-0.64-9.536-1.664-12.608-2.304-19.072-3.584-36.032-6.336-36.544-5.824-0.32 0.32-0.896 61.312-1.216 135.36l-0.576 134.848-3.072 0.32c-1.728 0.192-3.712-0.192-4.608-0.896-0.768-0.64-3.264-6.976-5.44-14.016-2.176-6.976-4.8-14.976-5.696-17.728-1.536-4.736-10.816-35.008-14.144-46.528-4.48-14.976-5.248-15.872-14.656-15.872-4.16 0-8 0.576-8.96 1.28-0.96 0.768-3.264 6.592-5.248 12.928-1.984 6.336-4.608 15.232-6.016 19.712-4.288 13.696-10.496 33.792-13.888 44.864-1.728 5.696-3.84 11.584-4.48 13.12-1.728 3.52-7.104 4.352-9.216 1.536-1.088-1.536-1.408-27.584-1.408-135.168 0-101.12-0.32-133.312-1.28-133.632-1.088-0.448-12.352 1.408-29.888 4.736-2.944 0.576-8.192 1.408-11.52 2.112l-12.032 2.112c-14.528 2.752-22.016 3.584-24.512 2.944-3.2-0.768-4.8-5.696-2.624-7.872 1.536-1.408 9.728-5.696 52.864-27.776 14.464-7.424 26.944-14.016 27.712-14.528 2.432-1.856 1.28-42.56-1.28-48.128-2.944-6.656-9.856-13.376-17.28-16.64-13.12-5.888-13.696-5.888-85.184-6.016-72 0-80.448-0.576-91.392-5.504-10.816-5.056-15.744-11.072-19.584-24.064-1.664-5.376-1.728-14.784-1.856-80.576 0-82.944 0.448-89.408 7.36-106.624 4.16-10.624 12.8-20.224 20.352-22.784 5.888-1.984 15.104-0.96 21.76 2.304 8.32 4.032 14.336 9.28 25.92 22.656 33.92 38.848 54.272 53.952 82.88 61.376l9.856 2.624 99.584 0c102.528 0 104.96-0.128 119.872-4.352 16.384-4.736 32.192-13.12 46.528-24.704 8.768-7.104 29.312-27.904 33.92-34.368 18.304-25.408 34.368-31.744 48.128-19.072 8.32 7.68 13.248 19.392 16.512 39.168C797.888 386.816 797.76 526.144 795.392 535.68zM710.4 423.936c-11.136-3.84-13.376-3.392-9.728 1.728 4.288 6.016 6.336 12.48 9.856 30.4 1.664 8.64 1.344 40.832-0.512 51.136-1.856 10.752-4.608 19.392-7.872 25.408-1.408 2.496-2.496 4.928-2.496 5.376 0 1.728 11.136-1.216 19.136-5.056 10.304-5.056 17.216-11.136 23.296-20.608 6.912-10.752 9.408-19.456 9.28-32.512-0.128-8.768-0.64-12.608-2.816-18.944C742.144 442.496 729.664 430.336 710.4 423.936z" fill="#56abe4"></path></g></g></svg>