<?xml version="1.0" standalone="no"?><!DOCTYPE svg PUBLIC "-//W3C//DTD SVG 1.1//EN" "http://www.w3.org/Graphics/SVG/1.1/DTD/svg11.dtd"><svg width="32" height="32" viewBox="0 0 32 32" version="1.1" xmlns="http://www.w3.org/2000/svg" xmlns:xlink="http://www.w3.org/1999/xlink"><defs><style type="text/css"><![CDATA[
@font-face { font-family: ifont; src: url(http://at.alicdn.com/t/font_1442373896_4754455.eot?#iefix) format(embedded-opentype), url(http://at.alicdn.com/t/font_1442373896_4754455.woff) format(woff), url(http://at.alicdn.com/t/font_1442373896_4754455.ttf) format(truetype), url(http://at.alicdn.com/t/font_1442373896_4754455.svg#ifont) format(svg); }

]]></style></defs><g class="transform-group"><g transform="scale(0.03125, 0.03125)"><path d="M548.047 504.304l334.15-334.15c9.804-9.804 9.804-25.716 0-35.519s-25.716-9.804-35.594 0l-334.15 334.15-334.076-334.15c-9.804-9.804-25.716-9.804-35.519 0s-9.804 25.716 0 35.519l334.15 334.15-334.15 334.15c-9.804 9.879-9.804 25.79 0 35.594 4.901 4.901 11.312 7.392 17.798 7.392s12.896-2.411 17.723-7.392l334.15-334.15 334.15 334.15c4.901 4.901 11.386 7.392 17.723 7.392 6.485 0 12.896-2.411 17.798-7.392 9.804-9.804 9.804-25.716 0-35.594l-334.15-334.15z" fill="#272636"></path></g></g></svg>