<?xml version="1.0" standalone="no"?><!DOCTYPE svg PUBLIC "-//W3C//DTD SVG 1.1//EN" "http://www.w3.org/Graphics/SVG/1.1/DTD/svg11.dtd"><svg width="32" height="32" viewBox="0 0 32 32" version="1.1" xmlns="http://www.w3.org/2000/svg" xmlns:xlink="http://www.w3.org/1999/xlink"><defs><style type="text/css"><![CDATA[
@font-face { font-family: ifont; src: url(http://at.alicdn.com/t/font_1442373896_4754455.eot?#iefix) format(embedded-opentype), url(http://at.alicdn.com/t/font_1442373896_4754455.woff) format(woff), url(http://at.alicdn.com/t/font_1442373896_4754455.ttf) format(truetype), url(http://at.alicdn.com/t/font_1442373896_4754455.svg#ifont) format(svg); }

]]></style></defs><g class="transform-group"><g transform="scale(0.03125, 0.03125)"><path d="M511.999488 590.307484c-145.821133 0-264.420275-119.108748-264.420275-265.499863 0-146.420791 118.599142-265.560238 264.420275-265.560238S776.419763 178.385806 776.419763 324.806597C776.419763 471.197712 657.820622 590.307484 511.999488 590.307484zM511.999488 89.946568c-128.85267 0-233.721089 105.34835-233.721089 234.861052 0 129.482003 104.868419 234.800677 233.721089 234.800677s233.721089-105.318674 233.721089-234.800677C745.720577 195.294918 640.852158 89.946568 511.999488 89.946568zM943.346587 964.753641 80.651366 964.753641c-8.454556 0-15.349593-6.865361-15.349593-15.349593l-0.180102-6.175653c0-204.521047 200.444195-370.908588 446.876794-370.908588s446.876794 166.387541 446.876794 370.908588l-0.119727 4.676509C958.456726 956.118983 951.561689 964.753641 943.346587 964.753641zM95.941608 934.054455l831.876308 0c-7.91425-185.094602-191.450357-331.035462-415.818427-331.035462C286.252001 603.01797 101.937159 750.69845 95.941608 934.054455z" fill="#272636"></path></g></g></svg>